<svg width="21" height="20" viewBox="0 0 21 20" fill="none" xmlns="http://www.w3.org/2000/svg">
<path d="M9.269 16.9814C4.59322 16.9814 0.789062 13.1772 0.789062 8.50142C0.789062 3.82564 4.59322 0.0214844 9.269 0.0214844C13.9448 0.0214844 17.7489 3.82564 17.7489 8.50142C17.7489 13.1772 13.9448 16.9814 9.269 16.9814ZM9.269 2.35621C5.88082 2.35621 3.12379 5.11282 3.12379 8.50142C3.12379 11.89 5.88082 14.6466 9.269 14.6466C12.6572 14.6466 15.4142 11.8896 15.4142 8.50142C15.4142 5.11325 12.6572 2.35621 9.269 2.35621Z" fill="white"/>
<path d="M20.403 17.8987L17.2106 14.7063C17.1587 14.6544 17.1034 14.6089 17.0456 14.5684C16.5621 15.2088 15.9896 15.7788 15.3467 16.2589C15.388 16.3188 15.4349 16.3757 15.488 16.4289L18.6804 19.6213C19.1563 20.0972 19.9275 20.0972 20.403 19.6213C20.8785 19.1458 20.8785 18.3742 20.403 17.8987Z" fill="white"/>
</svg>
